<svg xmlns="http://www.w3.org/2000/svg" width="117" height="34" viewBox="0 0 117 34" fill="none">
  <g clip-path="url(#clip0_715_34470)">
    <rect width="117" height="34" fill="#0F0E3E"/>
    <path d="M0 12.2331C0 11.7356 0 11.2381 0 10.7368C0.0698991 10.6905 0.169229 10.6596 0.19866 10.5941C0.743137 9.43324 1.66654 9.00515 2.85482 9.07457C3.64947 9.24812 4.19026 9.78033 4.63173 10.4514C5.31601 11.4965 6.00028 12.5417 6.68456 13.583C7.05245 14.1422 7.41666 14.7014 7.78455 15.2606C8.00896 15.6115 8.22969 15.9586 8.45411 16.3096C10.2237 19.0324 11.9969 21.7513 13.7664 24.4741C14.3293 25.3341 14.8922 26.1941 15.4587 27.058C15.4918 27.1043 15.5213 27.1544 15.5544 27.2007C16.1356 28.1841 16.8199 28.9902 18.0818 28.7781C18.961 28.5891 19.4614 27.9335 19.8881 27.1853C20.1898 26.7225 20.4951 26.2597 20.7968 25.8007C21.0874 25.3534 21.3744 24.906 21.665 24.4586C22.25 23.56 22.8386 22.6615 23.4235 21.7629C23.9827 20.9028 24.5456 20.039 25.1048 19.1789C25.2924 18.9051 25.4874 18.639 25.664 18.3613C27.2937 15.8198 28.9161 13.2783 30.5422 10.7368C30.7666 10.4282 30.991 10.1236 31.2191 9.81504C31.9659 9.14013 32.8194 8.93187 33.7796 9.1787C34.5375 9.51037 35.0305 10.112 35.3616 10.8795C35.5602 11.8822 35.2512 12.7654 34.7546 13.5984C34.4345 14.0843 34.1144 14.5703 33.7907 15.0562C33.5074 15.4766 33.2241 15.8969 32.9409 16.3173C32.3633 17.2198 31.7857 18.1261 31.2044 19.0285C30.6121 19.9348 30.0198 20.8373 29.4275 21.7436C27.68 24.4625 25.9289 27.1814 24.1814 29.9003L23.4015 30.9763C22.9269 31.4816 22.456 31.9868 21.9814 32.4881C21.5878 32.7581 21.1978 33.0281 20.8042 33.298C19.9359 33.5333 19.0714 33.7685 18.2032 33.9999C17.3423 33.8958 16.4778 33.7917 15.6169 33.6875C13.7223 32.9278 12.3685 31.5047 11.2501 29.7885C10.6798 28.913 10.0986 28.0414 9.52099 27.1698C8.95444 26.2983 8.38789 25.4267 7.82134 24.5512C7.82502 24.5088 7.8103 24.4779 7.77351 24.4586C7.18121 23.5523 6.58891 22.646 5.9966 21.7359C5.7354 21.3309 5.47052 20.926 5.20932 20.5172C4.88926 20.0197 4.56919 19.5222 4.24545 19.0285C3.70465 18.2032 3.16017 17.374 2.61938 16.5487C2.56787 16.4677 2.52005 16.3867 2.46854 16.3057C1.64079 14.9521 0.820394 13.5907 0 12.2331Z" fill="white"/>
    <path d="M40.4311 0C40.6923 0 40.9499 0 41.2111 0C41.3472 0.169691 41.4723 0.347096 41.6194 0.505218C42.4766 1.42695 43.3375 2.34483 44.1983 3.2627C44.2388 3.47482 44.2756 3.68693 44.3161 3.89905C44.294 3.9569 44.2719 4.01089 44.2462 4.06874C44.2278 4.11502 44.213 4.15744 44.1947 4.20372C43.8415 4.61252 43.4883 5.01747 43.1351 5.42627C42.6201 5.97005 42.105 6.51384 41.5937 7.05762C40.6813 7.64383 40.4716 7.61683 39.699 6.83394C39.4673 6.59868 39.2281 6.375 38.9927 6.14746C38.7499 5.90449 38.5034 5.66152 38.2606 5.42241C38.1171 5.26044 37.9773 5.09074 37.8302 4.93262C36.9656 4.02632 36.9435 3.69465 37.6683 2.71892C38.1098 2.25998 38.5549 1.80104 38.9964 1.34211C39.4746 0.89088 39.9529 0.447368 40.4311 0Z" fill="white"/>
    <path d="M116.746 24.0614C116.404 25.1027 116.062 26.1439 115.72 27.1852C114.76 29.0441 113.465 30.5983 111.809 31.8132C111.371 32.0793 110.934 32.3454 110.496 32.6115C110.065 32.8005 109.639 32.9856 109.208 33.1746C108.292 33.3944 107.376 33.6104 106.46 33.8302C106.339 33.8379 106.214 33.8456 106.092 33.8572C101.924 33.8572 97.7557 33.8726 93.5875 33.8572C92.7267 33.8572 91.8658 33.7608 91.0049 33.7068C90.1845 33.4792 89.3605 33.2517 88.5401 33.0242C88.2421 32.8853 87.9478 32.7465 87.6498 32.6115C87.0391 32.1988 86.4284 31.7862 85.8177 31.3697C84.4234 30.1433 83.305 28.6855 82.4552 27.004C82.1793 26.2018 81.8997 25.4035 81.6237 24.6013C81.4913 23.1975 81.3589 21.7937 81.2301 20.3937C81.2411 20.2125 81.2522 20.0312 81.2595 19.8499C81.5575 18.6274 81.8555 17.4048 82.1535 16.1784C83.4227 13.1433 85.5344 10.9797 88.404 9.6106C89.5371 9.30978 90.6702 9.00897 91.7996 8.71201C92.0534 8.70044 92.3109 8.68887 92.5648 8.68115C97.0751 8.68115 101.582 8.68115 106.092 8.68501C107.13 8.90869 108.167 9.13238 109.204 9.35606L111.809 10.729C111.886 10.783 111.964 10.837 112.045 10.891C112.828 11.6623 113.615 12.4336 114.399 13.205C114.491 13.3361 114.587 13.4672 114.679 13.5983C115.194 14.5934 115.709 15.5922 116.224 16.5872C117.044 19.0323 117.206 21.5276 116.746 24.0729V24.0614ZM110.764 16.3096C110.249 15.8005 109.734 15.2914 109.215 14.7862C108.436 14.4314 107.656 14.0727 106.879 13.7179C105.919 13.6408 104.959 13.5636 103.999 13.4865C103.866 13.4865 103.738 13.4942 103.605 13.4981C101.659 13.4981 99.7129 13.4942 97.7668 13.4904C97.4173 13.4904 97.0678 13.4904 96.7183 13.4904C96.5454 13.4904 96.3724 13.4826 96.1995 13.4826C96.0266 13.4826 95.85 13.4826 95.6771 13.4788C94.5036 13.5135 93.33 13.5521 92.1564 13.5868C91.7701 13.6755 91.3839 13.7603 90.9939 13.849C88.61 14.3967 86.5388 16.6952 86.0789 19.2984C86.0237 20.1662 85.9722 21.0339 85.917 21.8978C86.1341 22.8041 86.3475 23.7143 86.5645 24.6206C87.1163 25.4382 87.6719 26.2596 88.2237 27.0772C88.3193 27.166 88.4187 27.2547 88.5143 27.3434C89.3421 27.81 90.1661 28.2767 90.9939 28.7433C91.3802 28.8127 91.7665 28.8821 92.1528 28.9554C92.6347 28.9863 93.1203 29.0171 93.6022 29.048C93.9481 29.048 94.2939 29.048 94.6397 29.0518C96.0266 29.0518 97.4136 29.0518 98.8005 29.048C99.1463 29.048 99.4922 29.048 99.838 29.0518C100.53 29.0518 101.218 29.0518 101.909 29.0518C102.259 29.0518 102.608 29.0518 102.958 29.0518C102.998 29.0518 103.042 29.0518 103.083 29.0518C103.171 29.0518 103.263 29.0518 103.351 29.048C104.264 29.0171 105.176 28.9863 106.088 28.9554C106.258 28.9323 106.423 28.913 106.592 28.8899C108.995 28.3769 110.739 27.0155 111.677 24.6013C112.648 22.2642 112.607 19.9502 111.544 17.6555C111.456 17.4781 111.364 17.3007 111.276 17.1233C111.103 16.8533 110.93 16.5795 110.757 16.3096H110.764Z" fill="white"/>
    <path d="M64.8406 33.9577C64.1673 33.9577 63.4904 33.9577 62.8172 33.9616C61.8165 33.5489 60.8158 33.1362 59.8152 32.7274C59.7674 32.6889 59.7195 32.6542 59.6717 32.6156C58.8476 31.6707 58.0236 30.7297 57.1995 29.7848C56.0553 28.0108 54.9149 26.2367 53.7708 24.4627C53.1785 23.5602 52.5861 22.6578 51.9938 21.7515C51.4089 20.8452 50.824 19.9427 50.2427 19.0364C49.9668 18.6199 49.6909 18.1995 49.4149 17.783C49.1169 17.3241 48.8153 16.8613 48.5173 16.4023C48.5173 16.3599 48.5026 16.3291 48.4658 16.3136C47.9176 15.4845 47.3695 14.6553 46.8213 13.8261C46.7735 13.7451 46.7257 13.668 46.6778 13.587C46.2143 12.7501 45.8317 11.8978 46.0635 10.8874C46.3173 10.4824 46.5675 10.0775 46.8213 9.67253C47.616 9.09404 48.4731 8.90507 49.4113 9.22131C49.9263 9.77281 50.4413 10.3243 50.9564 10.8758C51.3096 11.4157 51.6591 11.9518 52.0122 12.4917C52.2587 12.862 52.5015 13.2361 52.748 13.6063C54.5029 16.3175 56.2577 19.0287 58.0125 21.7399L59.8005 24.4743C60.3744 25.3767 60.9483 26.2753 61.5222 27.1778C61.8202 27.5364 62.1182 27.8951 62.4162 28.2538C63.3322 29.0598 64.4028 29.0251 65.0208 28.1612C65.3151 27.8334 65.6094 27.5056 65.9038 27.1778C66.4777 26.2792 67.0553 25.3806 67.6292 24.4858C68.2288 23.5757 68.8285 22.6616 69.4281 21.7515C71.194 19.0326 72.9599 16.3098 74.7258 13.5909C74.9538 13.2322 75.1856 12.8774 75.4137 12.5187C75.7595 11.9711 76.1053 11.4234 76.4512 10.8758C76.9736 10.332 77.4923 9.78823 78.0147 9.24445C78.9418 8.94749 79.81 9.05547 80.601 9.66482C80.8548 10.0698 81.1086 10.4786 81.3625 10.8835C81.5501 11.8824 81.2779 12.7694 80.7408 13.587C80.6929 13.6641 80.6414 13.7451 80.5936 13.8223C80.0271 14.69 79.4568 15.5577 78.8903 16.4293C78.596 16.8844 78.3016 17.3395 78.0073 17.7907C77.7425 18.1995 77.4776 18.6083 77.2127 19.0171C76.6167 19.9312 76.0207 20.8413 75.4247 21.7553C74.8361 22.6578 74.2475 23.5602 73.6589 24.4627C72.5111 26.2367 71.3632 28.0069 70.2118 29.781C69.4245 30.722 68.6372 31.6669 67.8499 32.6079C67.8131 32.631 67.7763 32.6542 67.7358 32.6734C67.7027 32.7043 67.6733 32.7313 67.6402 32.7621L67.6144 32.7853C66.691 33.1748 65.7713 33.5682 64.8479 33.9577H64.8406Z" fill="white"/>
    <path d="M41.6049 33.8536C40.6521 34.1274 39.7765 33.9808 38.9966 33.3175C38.7464 33.0244 38.4926 32.7351 38.2424 32.442C38.2424 32.3688 38.2461 32.2916 38.2497 32.2184C38.2387 32.0332 38.2314 31.8481 38.2203 31.663C38.2166 31.0729 38.2093 30.4829 38.2056 29.8928C38.2056 28.9865 38.2056 28.0841 38.2056 27.1778C38.2056 26.2714 38.2056 25.3613 38.2056 24.455C38.2056 23.5487 38.2056 22.6462 38.2056 21.7399C38.2056 20.8336 38.2056 19.9234 38.2056 19.0171C38.2056 18.1108 38.2056 17.2084 38.2056 16.3021C38.2056 15.3958 38.2019 14.4856 38.1982 13.5793C38.2093 12.8697 38.224 12.1601 38.235 11.4504C38.2571 11.3463 38.2792 11.246 38.3013 11.1419C38.3123 11.0493 38.327 10.9568 38.338 10.8642C38.5625 10.4709 38.7832 10.0736 39.0076 9.68025C39.7139 9.19817 40.4792 8.98605 41.3216 9.10175C42.2781 9.44499 42.8925 10.1199 43.1464 11.1496C43.1574 11.2807 43.1684 11.4119 43.1795 11.543C43.1721 13.1281 43.1574 14.7131 43.1574 16.2982C43.1611 21.0997 43.1758 25.9012 43.1831 30.7027C43.0985 31.339 43.0139 31.9754 42.9256 32.6117C42.4842 33.0205 42.039 33.4332 41.5975 33.842L41.6049 33.8536Z" fill="white"/>
  </g>
  <defs>
    <clipPath id="clip0_715_34470">
      <rect width="117" height="34" fill="white"/>
    </clipPath>
  </defs>
</svg>