<svg xmlns="http://www.w3.org/2000/svg" width="81" height="86" viewBox="0 0 81 86" fill="none">
  <g clip-path="url(#clip0_715_34419)">
    <rect width="81" height="86" fill="#0F0E3E"/>
    <path d="M81 71.5727H78.6125V60.8384H81V71.5727Z" fill="white"/>
    <path d="M40.3382 0C41.1445 1.37292 41.9153 2.68458 42.6841 3.99724C45.2561 8.38819 47.8261 12.7801 50.4063 17.1671C50.5676 17.4402 50.5959 17.6401 50.4245 17.9344C47.1213 23.5657 43.8322 29.205 40.539 34.8413C40.4802 34.9417 40.4102 35.0351 40.3169 35.1747C39.9812 34.5973 39.6638 34.0499 39.3463 33.5035C36.3341 28.3232 33.3229 23.1418 30.3067 17.9635C30.1657 17.7215 30.0856 17.5306 30.2549 17.2414C33.5623 11.593 36.8574 5.93761 40.1546 0.284226C40.1962 0.212919 40.2439 0.145628 40.3382 0.00100433V0Z" fill="white"/>
    <path d="M40.4031 35.2811C40.604 35.2711 40.75 35.257 40.895 35.257C47.4093 35.256 53.9226 35.258 60.4369 35.25C60.7766 35.25 60.9744 35.3374 61.1529 35.6457C64.3862 41.2187 67.6337 46.7838 70.8772 52.3518C70.9512 52.4783 71.0151 52.6109 71.1266 52.8198H70.5293C64.0829 52.8198 57.6366 52.8158 51.1903 52.8288C50.7826 52.8288 50.5696 52.7013 50.3667 52.3528C47.1385 46.8149 43.8951 41.285 40.6557 35.7532C40.5735 35.6136 40.5025 35.4669 40.4031 35.2811Z" fill="white"/>
    <path d="M40.2622 35.2782C40.1486 35.4881 40.0735 35.6347 39.9914 35.7764C36.7723 41.3022 33.5481 46.825 30.3391 52.3569C30.1373 52.7054 29.9142 52.8299 29.5085 52.8289C23.0601 52.8159 16.6118 52.8199 10.1634 52.8199H9.58734C9.68775 52.625 9.75367 52.4794 9.83278 52.3428C13.0691 46.7879 16.3075 41.2339 19.5418 35.6779C19.6909 35.4228 19.8258 35.2461 20.1869 35.2471C26.7701 35.2611 33.3534 35.2571 39.9366 35.2581C40.0198 35.2581 40.1039 35.2682 40.2601 35.2782H40.2622Z" fill="white"/>
    <path d="M16.8775 83.7322C15.8095 81.9575 14.7892 80.2602 13.7679 78.5629C13.7304 78.5719 13.6929 78.58 13.6564 78.589V85.8363H11.2446V75.2104C12.2233 75.2104 13.1969 75.1974 14.1696 75.2265C14.2963 75.2305 14.4474 75.4374 14.5347 75.582C15.3024 76.8565 16.059 78.1381 16.8643 79.4949C16.985 79.3081 17.0753 79.1796 17.1544 79.044C17.8288 77.888 18.5094 76.735 19.1676 75.569C19.3187 75.3018 19.4871 75.1913 19.8015 75.1994C20.693 75.2205 21.5845 75.2064 22.5125 75.2064V85.8282H20.1088V78.6101C20.0672 78.595 20.0256 78.581 19.984 78.5659C18.9668 80.2582 17.9495 81.9495 16.8785 83.7312L16.8775 83.7322Z" fill="white"/>
    <path d="M8.85407 71.5066V64.2734C8.81857 64.2603 8.78307 64.2473 8.74656 64.2352C7.72728 65.9305 6.70698 67.6259 5.63699 69.4055C4.56598 67.653 3.52641 65.9526 2.48685 64.2523C2.45642 64.2573 2.42599 64.2623 2.39557 64.2664V71.5156H0V60.8968C0.9777 60.8968 1.93512 60.8808 2.89152 60.9139C3.03452 60.9189 3.20998 61.1298 3.30329 61.2845C3.99295 62.4324 4.66436 63.5914 5.34388 64.7454C5.42502 64.884 5.51832 65.0156 5.64814 65.2144C6.17249 64.2875 6.6583 63.4167 7.15628 62.553C7.4717 62.0056 7.68569 61.2684 8.16745 60.9832C8.63094 60.708 9.37943 60.9018 10.0032 60.8938C10.4048 60.8888 10.8054 60.8938 11.2395 60.8938V71.5086H8.85508L8.85407 71.5066Z" fill="white"/>
    <path d="M51.9854 65.9184C52.4195 66.2308 52.9094 66.4648 53.2349 66.8394C54.3252 68.0888 53.7826 70.465 52.2653 71.1389C51.8292 71.3328 51.3292 71.4714 50.8556 71.4824C49.0543 71.5216 47.2521 71.4985 45.4103 71.4985V60.8927C45.6659 60.8927 45.8981 60.8907 46.1294 60.8927C47.7156 60.9098 49.3069 60.8526 50.887 60.964C53.1152 61.1217 53.7532 62.7035 53.3384 64.4822C53.1943 65.1009 52.9246 65.3419 51.9854 65.9184ZM47.7683 69.5933C48.6882 69.5531 49.5614 69.5551 50.4235 69.4627C50.954 69.4065 51.1913 68.9907 51.2116 68.3449C51.2308 67.7312 51.0118 67.2642 50.5168 67.2251C49.6081 67.1527 48.6892 67.205 47.7683 67.205V69.5943V69.5933ZM47.7785 65.1642C48.5574 65.1642 49.2815 65.1923 50.0016 65.1551C50.6162 65.124 50.9712 64.6931 51.0057 64.0463C51.0392 63.4206 50.7856 63.0119 50.2085 62.9727C49.4103 62.9185 48.605 62.9587 47.7774 62.9587V65.1642H47.7785Z" fill="white"/>
    <path d="M55.8252 85.8312H53.4337C53.4216 85.6373 53.4033 85.4746 53.4033 85.3119C53.4013 82.1362 53.4104 78.9605 53.3921 75.7859C53.3891 75.3339 53.5027 75.1802 53.9804 75.1973C55.5139 75.2495 57.0535 75.1943 58.5819 75.2967C60.4156 75.4193 61.371 76.4638 61.4561 78.2846C61.4744 78.6823 61.4714 79.0931 61.3953 79.4818C61.1762 80.5986 60.6853 81.1078 59.3212 81.7024C60.1762 83.0572 61.0271 84.408 61.943 85.8583C60.9754 85.8583 60.1235 85.8714 59.2725 85.8432C59.1549 85.8392 59.0129 85.6554 58.9328 85.5239C58.379 84.6069 57.8395 83.6819 57.2938 82.7609C56.9923 82.2507 56.5024 82.0395 55.8242 82.1272V85.8332L55.8252 85.8312ZM55.8445 80.0231C56.6315 79.987 57.3567 79.997 58.0697 79.9096C58.736 79.8283 59.0464 79.3271 59.0251 78.5468C59.0058 77.8397 58.661 77.3496 58.0372 77.3034C57.3212 77.2502 56.5981 77.2913 55.8455 77.2913V80.0231H55.8445Z" fill="white"/>
    <path d="M33.5258 80.673C33.4548 81.2494 33.4112 81.9515 33.2763 82.6364C32.8615 84.7495 31.5278 85.8955 29.3553 85.9909C28.7042 86.019 28.0338 85.9808 27.3949 85.8563C25.691 85.5239 24.766 84.389 24.405 82.77C24.0743 81.2826 24.0784 79.7821 24.406 78.2947C24.8086 76.4688 25.8705 75.4092 27.7579 75.1762C28.7062 75.0597 29.7326 75.1039 30.6545 75.3389C32.4406 75.7949 33.115 77.2301 33.3686 78.8993C33.4507 79.4426 33.4669 79.996 33.5247 80.6719L33.5258 80.673ZM26.5764 80.4731C26.6727 81.1781 26.7062 81.8852 26.8766 82.5591C27.1028 83.4529 27.7123 83.8165 28.7509 83.8205C29.8381 83.8245 30.4466 83.475 30.6839 82.5681C31.0369 81.2233 31.0349 79.8514 30.6839 78.5056C30.4537 77.6258 29.8685 77.2793 28.8452 77.2693C27.7498 77.2582 27.1494 77.5967 26.8989 78.4996C26.7224 79.1363 26.6798 79.8102 26.5774 80.4721L26.5764 80.4731Z" fill="white"/>
    <path d="M51.8272 80.648C51.7369 81.3179 51.6923 82.0561 51.531 82.7692C51.0655 84.8281 49.7907 85.8886 47.6608 85.9901C47.0097 86.0212 46.3393 85.983 45.7003 85.8605C44.0462 85.5411 43.0979 84.4645 42.7297 82.8797C42.3687 81.329 42.3656 79.7622 42.7277 78.2115C43.1293 76.4951 44.1831 75.3843 45.9884 75.1825C46.8626 75.085 47.7856 75.089 48.6466 75.2528C50.4296 75.5912 51.2805 76.8727 51.597 78.5429C51.7237 79.2128 51.7491 79.9018 51.8282 80.648H51.8272ZM49.2551 80.7083C49.1953 80.0284 49.1558 79.5141 49.102 79.0009C49.0848 78.8372 49.0422 78.6735 48.9925 78.5148C48.7207 77.6501 48.1476 77.2745 47.103 77.2684C46.0259 77.2624 45.388 77.627 45.1598 78.5058C44.8109 79.8506 44.8109 81.2185 45.1577 82.5643C45.3819 83.433 46.0178 83.8167 47.0421 83.8207C48.1142 83.8247 48.7531 83.4551 48.9773 82.5723C49.1446 81.9165 49.1821 81.2285 49.2551 80.7073V80.7083Z" fill="white"/>
    <path d="M67.9928 60.9207H70.367V65.0545H74.1967V60.9187H76.5872V71.5003H74.222V67.3685H70.3782V71.5104H67.9907V60.9217L67.9928 60.9207Z" fill="white"/>
    <path d="M34.7306 60.9158H37.1232C37.1232 61.1167 37.1232 61.2934 37.1232 61.4702C37.1232 63.5582 37.1211 65.6462 37.1242 67.7342C37.1262 68.852 37.4994 69.298 38.61 69.4165C39.0197 69.4607 39.4569 69.4235 39.8595 69.3311C40.5451 69.1734 40.8869 68.6361 40.8889 67.7995C40.895 65.6944 40.891 63.5903 40.891 61.4853C40.891 61.3055 40.891 61.1267 40.891 60.9228H43.3038C43.3038 61.1177 43.3038 61.2804 43.3038 61.4421C43.3038 63.5472 43.3078 65.6512 43.3028 67.7563C43.2967 70.242 41.9163 71.6371 39.3889 71.6551C38.6556 71.6602 37.896 71.6139 37.1911 71.4312C35.7134 71.0485 34.8097 70.0221 34.755 68.5246C34.6637 66.0088 34.7296 63.4869 34.7296 60.9148L34.7306 60.9158Z" fill="white"/>
    <path d="M62.9197 85.7408V83.5072C63.3487 83.5594 63.7554 83.6357 64.1641 83.6528C65.0891 83.692 66.015 83.7221 66.94 83.7161C67.3741 83.7131 67.799 83.5855 67.8974 83.0723C67.9938 82.5711 67.7291 82.2357 67.299 82.0258C66.3781 81.5748 65.444 81.151 64.5282 80.692C63.4714 80.1617 62.7574 79.3814 62.6945 78.136C62.6093 76.4226 63.5424 75.2716 65.3629 75.126C66.796 75.0115 68.2473 75.1029 69.721 75.1029V77.3918C68.5597 77.3536 67.4187 77.2984 66.2767 77.2863C65.8386 77.2813 65.3193 77.221 65.1347 77.7905C65.0089 78.1772 65.2767 78.5387 65.9339 78.8661C66.8355 79.3151 67.7787 79.6917 68.651 80.1909C70.0678 81.0004 70.5486 82.2487 70.1581 83.8205C69.9329 84.7254 69.3498 85.2989 68.4836 85.6112C67.3812 86.009 66.23 85.9949 65.085 85.9577C64.3659 85.9346 63.6509 85.8191 62.9186 85.7428L62.9197 85.7408Z" fill="white"/>
    <path d="M66.1043 60.942V63.1515C65.4532 63.1073 64.8223 63.044 64.1915 63.0259C63.5353 63.0069 62.873 62.9888 62.2229 63.0551C61.9775 63.0802 61.6073 63.3122 61.5627 63.509C61.5069 63.7531 61.6529 64.1438 61.8497 64.3215C62.1509 64.5937 62.5657 64.7464 62.94 64.9352C63.6895 65.3138 64.4684 65.6412 65.1925 66.062C66.7838 66.986 66.9055 68.7105 66.3822 70.0131C65.9268 71.146 64.8852 71.5808 63.7818 71.626C62.3761 71.6833 60.9612 71.5336 59.5515 71.4533C59.4572 71.4483 59.2979 71.2795 59.2939 71.1821C59.2705 70.5504 59.2817 69.9177 59.2817 69.2297C59.873 69.299 60.4156 69.3924 60.9612 69.4205C61.7351 69.4597 62.513 69.4808 63.2868 69.4527C63.7067 69.4376 64.156 69.3301 64.2665 68.8199C64.3801 68.2957 64.0962 67.9562 63.6458 67.7393C62.8588 67.3586 62.0637 66.9951 61.2777 66.6134C61.0059 66.4819 60.7442 66.3272 60.4876 66.1675C59.301 65.4273 58.8679 64.3788 59.1428 62.9275C59.3527 61.8187 60.1275 61.1016 61.4673 60.8757C62.9957 60.6176 64.5262 60.7381 66.1033 60.942H66.1043Z" fill="white"/>
    <path d="M25.904 71.5628V69.3041C27.0906 69.3643 28.262 69.4316 29.4335 69.4758C29.6982 69.4858 29.9963 69.4778 30.2245 69.3673C30.469 69.2488 30.7935 69.0168 30.8209 68.8029C30.8554 68.5257 30.7114 68.12 30.4974 67.9432C30.1312 67.6409 29.6546 67.4681 29.2205 67.2492C28.5146 66.8947 27.7854 66.5813 27.1028 66.1886C25.546 65.2948 25.403 63.736 25.9212 62.345C26.2215 61.5406 26.9121 61.0715 27.7245 60.9731C28.8888 60.8315 30.0714 60.8225 31.2469 60.7974C31.7134 60.7873 32.182 60.8837 32.681 60.935V63.1465C31.8432 63.0943 31.0258 63.027 30.2063 62.9989C29.7195 62.9818 29.2225 62.9828 28.7438 63.0581C28.5176 63.0933 28.187 63.2941 28.1474 63.4729C28.0937 63.718 28.1921 64.0946 28.3706 64.2663C28.6505 64.5355 29.044 64.6952 29.403 64.875C30.1535 65.2526 30.9406 65.5659 31.6617 65.9908C33.0694 66.8203 33.5836 68.2626 33.0562 69.7982C32.6039 71.1149 31.4913 71.5789 30.2469 71.6401C28.8239 71.7104 27.3929 71.598 25.902 71.5628H25.904Z" fill="white"/>
    <path d="M19.627 71.5144V63.1524H16.8217V60.9177H24.9668V63.1253H22.1037V71.5144H19.627Z" fill="white"/>
    <path d="M36.755 77.4721H33.8676V75.2405H42.0431V77.451H39.1678V85.8151H36.755V77.4711V77.4721Z" fill="white"/>
    <path d="M55.1883 60.9209H57.5311V71.5025H55.1883V60.9209Z" fill="white"/>
    <path d="M15.7051 60.9429C15.7051 61.1196 15.7051 61.2833 15.7051 61.447C15.7051 64.6197 15.697 67.7924 15.7142 70.9651C15.7162 71.41 15.6158 71.5928 15.131 71.5567C14.5479 71.5125 13.9596 71.5466 13.3359 71.5466V60.9439H15.7051V60.9429Z" fill="white"/>
  </g>
  <defs>
    <clipPath id="clip0_715_34419">
      <rect width="81" height="86" fill="white"/>
    </clipPath>
  </defs>
</svg>