<svg xmlns="http://www.w3.org/2000/svg" width="69" height="51" viewBox="0 0 69 51" fill="none">
  <g clip-path="url(#clip0_715_34417)">
    <rect width="69" height="51" fill="#0F0E3E"/>
    <path d="M27.8285 42.1863C19.2857 32.183 19.5286 18.5229 27.7402 8.89687C22.3385 5.35201 12.882 8.48143 6.5362 16.0276C4.41359 14.8004 2.26062 13.5568 0.00552044 12.2531C2.36827 8.45411 5.42935 5.45861 9.29918 3.3541C17.1603 -0.923226 25.176 -1.11454 33.2386 2.81568C34.1467 3.25845 34.8119 3.29944 35.7504 2.82115C48.2266 -3.52516 62.5328 1.60491 68.9586 12.2723C66.8139 13.5186 64.6692 14.7621 62.4831 16.033C57.0979 8.70282 50.0952 6.25121 41.0334 8.66182C45.2731 13.6252 47.5282 19.1679 47.5338 25.4432C47.5393 31.7485 45.3311 37.3186 41.1742 42.1261C46.6781 44.5039 56.4769 43.7469 62.4528 34.949C64.5919 36.1871 66.7421 37.4306 69 38.7343C67.3135 41.5576 65.224 43.8781 62.6487 45.7229C54.0865 51.856 45.0164 52.6104 35.4606 48.1445C34.9168 47.8903 34.0252 47.9258 33.476 48.1909C21.734 53.8785 8.31654 50.5223 0.803224 39.9642C0.546524 39.6007 0.311905 39.2236 0 38.7535C2.2275 37.4634 4.37771 36.2144 6.59693 34.9298C9.53932 39.2564 13.445 42.0305 18.5763 43.0199C21.3641 43.5583 25.5376 43.2248 27.8258 42.1835L27.8285 42.1863ZM34.5193 37.6848C42.0437 30.5131 41.0445 18.1813 34.4669 12.4937C27.4918 18.8509 27.4808 31.0652 34.5193 37.6848Z" fill="white"/>
  </g>
  <defs>
    <clipPath id="clip0_715_34417">
      <rect width="69" height="51" fill="white"/>
    </clipPath>
  </defs>
</svg>