<svg xmlns="http://www.w3.org/2000/svg" width="182" height="45" viewBox="0 0 182 45" fill="none">
  <g clip-path="url(#clip0_715_34631)">
    <path d="M24.9949 0C26.2428 0.278139 27.5092 0.494063 28.7349 0.845397C37.2221 3.29009 42.7543 8.76505 44.8909 17.1861C46.8497 24.9081 44.9205 31.8799 39.4438 37.805C35.8371 41.7099 31.3381 44.0485 26.0836 44.7621C19.4072 45.6661 13.3973 43.957 8.19093 39.6714C3.89921 36.1361 1.3775 31.5908 0.407324 26.178C0.266612 25.3839 0.133306 24.586 0 23.7882C0 22.9355 0 22.0791 0 21.2264C0.0629501 21.0617 0.16293 20.9044 0.181445 20.736C0.418433 18.273 0.944252 15.8832 1.98108 13.6142C5.08415 6.82905 10.2572 2.50325 17.5742 0.688029C18.3888 0.486744 19.1887 0.230563 19.9959 0C21.6623 0 23.3286 0 24.9949 0ZM44.0873 22.6244C44.3058 11.1768 34.73 1.50049 22.962 1.47853C11.1274 1.46023 1.61078 10.6535 1.55154 22.3719C1.48859 34.3758 11.1644 43.4812 22.762 43.569C34.4782 43.6569 44.228 34.0025 44.091 22.6244H44.0873Z" fill="#AEB8C4"/>
    <path d="M182 11.8943C181.878 12.1249 181.715 12.3444 181.644 12.5933C181.182 14.1999 179.697 15.3747 178.075 15.393C176.39 15.415 174.79 14.156 174.305 12.4323C173.891 10.9574 174.642 9.27759 176.116 8.38462C178.241 7.0964 180.967 8.187 181.648 10.5841C181.707 10.7927 181.881 10.972 182.004 11.1624V11.8943H182Z" fill="#E38338"/>
    <path d="M128.207 23.7591C128.433 23.4407 128.689 23.1369 128.877 22.8002C131.125 18.7599 134.547 16.4433 139.235 16.3921C143.734 16.3408 147.218 18.3683 149.647 22.1305C149.821 22.4013 149.992 22.6722 150.166 22.9466C150.258 22.9283 150.351 22.91 150.447 22.8917C150.447 22.588 150.447 22.2879 150.447 21.9841C150.436 20.6447 150.436 19.3015 150.41 17.9621C150.399 17.4753 150.536 17.2448 151.084 17.2448C157.749 17.2594 164.411 17.2558 171.076 17.2631C171.161 17.2631 171.25 17.307 171.465 17.3655C171.465 18.7928 171.498 20.2421 171.439 21.6913C171.424 21.9988 171.102 22.3245 170.865 22.5916C167.784 26.0428 164.692 29.4829 161.604 32.9267C161.486 33.0585 161.382 33.2048 161.16 33.494C161.571 33.5489 161.849 33.6111 162.123 33.6147C165.918 33.6477 169.714 33.6513 173.505 33.7172C174.313 33.7318 174.476 33.45 174.472 32.7218C174.446 27.9056 174.476 23.0857 174.442 18.2695C174.435 17.4753 174.635 17.2009 175.468 17.2338C177.131 17.2997 178.801 17.2631 180.463 17.2484C180.922 17.2484 181.219 17.307 181.219 17.8816C181.204 25.1974 181.208 32.5168 181.2 39.8326C181.2 39.9461 181.148 40.0632 181.1 40.2645C179.215 40.2645 177.342 40.2645 175.468 40.2645C167.633 40.2571 159.797 40.2315 151.962 40.2608C151.066 40.2608 150.917 39.9863 150.817 39.1446C150.54 36.806 151.369 35.0823 153.021 33.4061C155.813 30.5698 158.357 27.4957 161.001 24.5167C161.115 24.3849 161.204 24.2312 161.4 23.9457H150.655C151.088 25.7719 151.639 27.5286 151.214 29.4756H134.306C134.269 31.4372 135.965 33.4281 137.968 33.8453C140.26 34.3247 142.245 33.8453 143.786 31.9898C143.9 31.8507 144.152 31.6897 144.297 31.7227C146.27 32.1618 148.24 32.6303 150.321 33.1207C149.61 34.903 148.54 36.2534 147.185 37.3769C141.134 42.3871 132.417 40.6085 128.818 33.655C128.67 33.3732 128.403 33.1499 128.192 32.9011C127.978 31.5031 127.581 30.0977 127.596 28.6997C127.615 27.0528 127.989 25.4096 128.211 23.7664L128.207 23.7591ZM144.245 25.7061C143.837 23.459 141.401 21.9695 138.716 22.1598C136.909 22.2879 134.61 24.1031 134.702 25.7061H144.245Z" fill="#E38238"/>
    <path d="M77.5398 29.5522C77.5583 31.8871 79.7245 33.9183 82.3166 34.0134C84.1607 34.0793 85.7826 33.5596 86.986 32.0665C87.1267 31.8945 87.4489 31.7188 87.6414 31.7627C89.5929 32.1836 91.5332 32.6484 93.481 33.1022C92.4108 36.4838 88.0414 40.3374 82.3795 40.202C76.7066 40.0666 72.0631 36.0299 70.993 30.383C69.9598 24.9483 73.0518 19.2867 78.2433 17.2299C81.5427 15.9234 84.8235 16.0918 88.0006 17.6581C91.1296 19.2025 93.1181 21.746 94.3179 25.0288C95.251 20.6005 97.4357 17.1055 101.724 15.4037C106.067 13.6763 110.059 14.5986 113.644 17.8814V15.2976H119.742V39.4847H113.729V37.0913C113.407 37.2816 113.218 37.3548 113.077 37.4792C108.508 41.6293 101.453 40.9742 97.3172 36.0263C95.8953 34.3245 94.9325 32.4105 94.5734 30.222C94.4956 29.7462 94.3697 29.4571 93.7809 29.4571C88.445 29.479 83.109 29.4754 77.7731 29.479C77.7138 29.479 77.6583 29.512 77.5361 29.5486L77.5398 29.5522ZM113.981 27.1588C113.962 26.8916 113.955 26.4598 113.895 26.0389C113.521 23.4039 112.136 21.4569 109.6 20.5566C107.012 19.6417 104.542 19.9967 102.483 21.9656C100.68 23.693 100.206 25.8779 100.383 28.2567C100.728 32.835 105.123 35.7957 109.426 34.3575C112.255 33.4096 113.999 30.7124 113.981 27.1588ZM87.5007 25.6876C87.1971 23.682 84.9531 22.1157 82.5165 22.1449C80.2244 22.1706 78.1323 23.7516 77.8805 25.6876H87.5007Z" fill="black"/>
    <path d="M51.2563 40.1653V7.37419C51.334 7.31929 51.3822 7.25342 51.4303 7.25342C55.5221 7.38517 59.6323 7.31929 63.6982 7.71088C67.627 8.08784 70.5042 11.2938 70.8523 15.195C70.9634 16.4284 70.9411 17.7056 70.7375 18.9243C70.2191 22.0204 68.238 23.993 65.3978 25.208C65.1757 25.3032 64.9609 25.413 64.6202 25.5704C67.2382 30.4341 69.8266 35.2503 72.4964 40.2129C70.2228 40.2129 68.1343 40.2385 66.0495 40.18C65.7977 40.1727 65.483 39.7774 65.3275 39.492C63.0687 35.3345 60.8321 31.1661 58.5918 26.9976C58.5474 26.9171 58.5289 26.811 58.4659 26.7561C58.2289 26.5658 57.9771 26.3901 57.7327 26.2108C57.6364 26.467 57.455 26.7232 57.4513 26.9793C57.4291 28.9922 57.4365 31.0014 57.4365 33.0142C57.4365 35.0856 57.4365 37.1607 57.4365 39.2321C57.4365 39.5285 57.4106 39.825 57.3958 40.1653H51.2526H51.2563ZM57.4402 16.6772C57.4402 17.6214 57.4069 18.5693 57.4661 19.5098C57.4809 19.7404 57.8068 20.1503 57.9808 20.1466C59.4879 20.1064 61.0172 20.1247 62.4873 19.8575C64.2684 19.5355 65.0127 18.3607 64.9202 16.5235C64.8387 14.8876 63.7204 13.5994 62.0837 13.4164C60.7988 13.2737 59.499 13.2883 58.2104 13.2078C57.5772 13.1675 57.4143 13.4567 57.4328 14.0276C57.4661 14.9096 57.4402 15.7952 57.4402 16.6809V16.6772Z" fill="black"/>
    <path d="M128.207 23.759C127.989 25.4022 127.611 27.0454 127.593 28.6923C127.578 30.0903 127.974 31.492 128.189 32.8937C128.189 35.2945 128.189 37.6953 128.189 40.1546H122.134V6.47412H128.207V23.7554V23.759Z" fill="#171C23"/>
    <path d="M34.2671 12.154C34.2041 12.3333 34.1116 12.6517 33.982 12.9555C30.7826 20.3079 27.5796 27.6602 24.3654 35.0053C24.1988 35.3859 23.9988 35.8068 23.6878 36.0666C23.0583 36.5863 22.2325 36.2204 21.9104 35.3018C21.1327 33.0913 20.344 30.8808 19.6256 28.6484C19.3479 27.7883 18.9554 27.2833 17.9815 27.093C15.6264 26.6319 13.3047 26.0207 10.9607 25.501C10.3609 25.3693 9.7906 25.1094 9.85725 24.4982C9.90909 24.0481 10.2831 23.4735 10.6867 23.2466C17.8371 19.2319 25.0134 15.2611 32.1897 11.283C33.3191 10.6572 34.2486 10.9902 34.2671 12.1576V12.154Z" fill="#E38238"/>
  </g>
  <defs>
    <clipPath id="clip0_715_34631">
      <rect width="182" height="45" fill="white"/>
    </clipPath>
  </defs>
</svg>