<svg width="136" height="37" viewBox="0 0 136 37" fill="none" xmlns="http://www.w3.org/2000/svg">
<g id="Group 90">
<g id="Group 98">
<path id="Vector" d="M135.472 5.81939C135.345 6.06692 135.176 6.30267 135.103 6.56985C134.624 8.29475 133.085 9.556 131.405 9.57565C129.659 9.59923 128.001 8.2476 127.499 6.39697C127.069 4.81353 127.848 3.01005 129.375 2.05134C131.577 0.668278 134.401 1.83916 135.107 4.41275C135.168 4.63671 135.349 4.82924 135.475 5.03356V5.81939H135.472Z" fill="white" fill-opacity="0.75"/>
<path id="Vector_2" d="M79.7354 18.5569C79.9695 18.2151 80.2342 17.889 80.4299 17.5275C82.7588 13.1897 86.3039 10.7026 91.1612 10.6476C95.8229 10.5925 99.4332 12.7693 101.95 16.8085C102.13 17.0992 102.307 17.39 102.487 17.6846C102.583 17.665 102.679 17.6454 102.779 17.6257C102.779 17.2996 102.779 16.9774 102.779 16.6513C102.767 15.2132 102.767 13.7712 102.74 12.3332C102.729 11.8106 102.871 11.563 103.439 11.563C110.345 11.5788 117.247 11.5748 124.153 11.5827C124.242 11.5827 124.334 11.6298 124.556 11.6927C124.556 13.2251 124.591 14.781 124.529 16.337C124.514 16.667 124.18 17.0167 123.935 17.3035C120.742 21.0087 117.539 24.7021 114.339 28.3994C114.216 28.5409 114.109 28.698 113.879 29.0084C114.304 29.0674 114.592 29.1342 114.876 29.1381C118.809 29.1735 122.741 29.1774 126.67 29.2481C127.507 29.2638 127.675 28.9613 127.672 28.1794C127.645 23.0086 127.675 17.834 127.641 12.6632C127.633 11.8106 127.84 11.5159 128.704 11.5513C130.426 11.622 132.157 11.5827 133.879 11.567C134.355 11.567 134.662 11.6298 134.662 12.2467C134.647 20.1011 134.651 27.9594 134.643 35.8137C134.643 35.9355 134.589 36.0613 134.539 36.2774C132.586 36.2774 130.645 36.2774 128.704 36.2774C120.585 36.2695 112.467 36.242 104.348 36.2734C103.42 36.2734 103.266 35.9787 103.163 35.075C102.875 32.5643 103.734 30.7137 105.445 28.9141C108.338 25.8691 110.974 22.5686 113.714 19.3703C113.833 19.2288 113.925 19.0638 114.128 18.7573H102.994C103.443 20.7179 104.014 22.6039 103.573 24.6942H86.0545C86.0162 26.8003 87.7734 28.9377 89.8491 29.3856C92.224 29.9004 94.2805 29.3856 95.8766 27.3936C95.9955 27.2443 96.2564 27.0714 96.406 27.1067C98.451 27.5782 100.492 28.0812 102.648 28.6077C101.912 30.5212 100.803 31.971 99.3987 33.1773C93.1295 38.5563 84.0978 36.6467 80.3685 29.1813C80.215 28.8788 79.9388 28.6391 79.7201 28.3719C79.4975 26.871 79.087 25.3622 79.1023 23.8613C79.1215 22.0931 79.509 20.329 79.7392 18.5648L79.7354 18.5569ZM96.3523 20.6472C95.9303 18.2347 93.4057 16.6356 90.6241 16.8399C88.7517 16.9774 86.3691 18.9263 86.465 20.6472H96.3523Z" fill="white" fill-opacity="0.75"/>
<path id="Vector_3" d="M27.2364 24.7769C27.2555 27.2837 29.5 29.4644 32.1858 29.5666C34.0964 29.6373 35.7769 29.0794 37.0239 27.4763C37.1697 27.2916 37.5035 27.103 37.703 27.1502C39.7249 27.602 41.7354 28.101 43.7535 28.5882C42.6447 32.2187 38.1173 36.3561 32.251 36.2108C26.3731 36.0654 21.5618 31.7315 20.453 25.6689C19.3826 19.8341 22.5862 13.7557 27.9653 11.5475C31.3839 10.1448 34.7832 10.3256 38.0751 12.0072C41.3172 13.6653 43.3775 16.3961 44.6206 19.9205C45.5875 15.1663 47.8511 11.4139 52.2941 9.58687C56.7946 7.73232 60.9306 8.72246 64.6445 12.2469V9.47293H70.9636V35.4406H64.7328V32.871C64.399 33.0753 64.2033 33.1539 64.0575 33.2875C59.323 37.7431 52.014 37.0398 47.7284 31.7276C46.2551 29.9006 45.2575 27.8456 44.8853 25.496C44.8048 24.9852 44.6743 24.6748 44.0643 24.6748C38.5355 24.6984 33.0068 24.6944 27.4781 24.6984C27.4167 24.6984 27.3591 24.7337 27.2325 24.773L27.2364 24.7769ZM64.9937 22.2073C64.9745 21.9205 64.9668 21.4568 64.9054 21.005C64.5179 18.176 63.083 16.0857 60.4548 15.1191C57.773 14.1368 55.2138 14.518 53.0806 16.6318C51.2121 18.4864 50.721 20.8321 50.9052 23.386C51.262 28.3014 55.8162 31.4801 60.2745 29.9359C63.2058 28.9183 65.0129 26.0225 64.9937 22.2073ZM37.5572 20.6278C37.2426 18.4746 34.9175 16.7929 32.3929 16.8244C30.018 16.8519 27.8502 18.5493 27.5893 20.6278H37.5572Z" fill="white" fill-opacity="0.75"/>
<path id="Vector_4" d="M0.00383463 36.1721V0.96697C0.0844061 0.908033 0.134284 0.837308 0.184162 0.837308C4.42376 0.978757 8.68254 0.908033 12.8953 1.32845C16.9661 1.73315 19.9472 5.17508 20.3078 9.36355C20.4229 10.6877 20.3999 12.0589 20.1889 13.3674C19.6518 16.6914 17.5991 18.8092 14.6563 20.1137C14.4261 20.2158 14.2036 20.3337 13.8506 20.5027C16.5632 25.7245 19.2451 30.8953 22.0114 36.2232C19.6556 36.2232 17.4917 36.2507 15.3316 36.1878C15.0707 36.18 14.7446 35.7556 14.5834 35.4491C12.243 30.9856 9.92564 26.5103 7.60441 22.035C7.55837 21.9486 7.53919 21.8347 7.47396 21.7757C7.22841 21.5714 6.96751 21.3828 6.71429 21.1903C6.61453 21.4653 6.42653 21.7404 6.42269 22.0154C6.39967 24.1764 6.40735 26.3335 6.40735 28.4946C6.40735 30.7185 6.40735 32.9463 6.40735 35.1702C6.40735 35.4884 6.38049 35.8067 6.36515 36.1721H0H0.00383463ZM6.41118 10.9549C6.41118 11.9686 6.37666 12.9862 6.43804 13.996C6.45339 14.2436 6.79102 14.6836 6.97135 14.6797C8.5329 14.6365 10.1175 14.6561 11.6407 14.3693C13.4861 14.0235 14.2573 12.7623 14.1614 10.7898C14.077 9.0335 12.9183 7.65044 11.2225 7.45399C9.89111 7.30075 8.54441 7.31647 7.20923 7.23003C6.55314 7.18681 6.38433 7.49721 6.40351 8.11016C6.43805 9.05708 6.41118 10.0079 6.41118 10.9588V10.9549Z" fill="white" fill-opacity="0.75"/>
<path id="Vector_5" d="M79.7359 18.5573C79.5095 20.3215 79.1181 22.0857 79.099 23.8538C79.0836 25.3548 79.4941 26.8596 79.7167 28.3645C79.7167 30.942 79.7167 33.5195 79.7167 36.1599H73.4436V0H79.7359V18.5534V18.5573Z" fill="white" fill-opacity="0.75"/>
</g>
</g>
</svg>
